<?xml version="1.0" standalone="no"?>
<!DOCTYPE svg PUBLIC "-//W3C//DTD SVG 20010904//EN"
 "http://www.w3.org/TR/2001/REC-SVG-20010904/DTD/svg10.dtd">
<svg version="1.0" xmlns="http://www.w3.org/2000/svg"
 width="800.000000pt" height="800.000000pt" viewBox="0 0 800.000000 800.000000"
 preserveAspectRatio="xMidYMid meet">
<metadata>
Created by potrace 1.14, written by Peter Selinger 2001-2017
</metadata>
<g transform="translate(0.000000,800.000000) scale(0.100000,-0.100000)"
fill="#000000" stroke="none">
<path d="M4059 7406 c-2 -2 -42 -7 -89 -11 -47 -4 -94 -8 -105 -9 -28 -3 -126
-17 -150 -22 -11 -2 -33 -6 -50 -9 -77 -13 -147 -29 -230 -52 -49 -13 -99 -26
-109 -28 -55 -12 -258 -85 -386 -137 -91 -38 -379 -184 -401 -204 -8 -8 -19
-14 -23 -14 -11 0 -212 -136 -301 -203 -215 -162 -390 -331 -585 -563 -98
-117 -254 -348 -340 -504 -103 -185 -212 -440 -265 -615 -14 -49 -30 -101 -35
-115 -5 -14 -12 -38 -16 -55 -4 -16 -8 -34 -10 -40 -28 -113 -54 -248 -69
-360 -3 -27 -8 -61 -11 -75 -28 -170 -23 -643 9 -855 4 -22 9 -58 12 -80 3
-23 8 -52 10 -65 3 -14 8 -38 11 -55 23 -132 125 -480 171 -585 8 -19 19 -44
23 -55 131 -320 346 -671 572 -933 77 -89 341 -344 428 -413 374 -298 779
-511 1195 -628 61 -17 126 -36 145 -41 48 -14 281 -59 333 -65 23 -3 62 -7 87
-10 142 -17 248 -21 445 -19 121 1 236 5 255 8 19 2 60 7 90 11 168 18 327 51
580 119 229 62 569 213 812 363 353 216 689 519 844 760 37 58 101 180 120
228 71 186 89 253 114 430 9 60 6 340 -4 405 -3 19 -11 56 -17 81 -6 26 -12
53 -13 60 -15 75 -69 225 -113 313 -78 157 -154 266 -284 404 -80 86 -102 135
-106 233 -2 66 1 83 26 135 16 32 52 84 81 114 198 211 340 482 394 755 31
158 41 396 21 515 -22 137 -63 301 -84 335 -3 6 -6 15 -7 22 -5 29 -98 211
-147 285 -293 450 -975 910 -1637 1106 -112 33 -346 87 -420 97 -25 3 -54 8
-65 10 -11 1 -45 6 -75 10 -30 3 -71 8 -90 11 -39 6 -536 15 -541 10z m511
-632 c63 -8 122 -15 130 -15 8 -1 31 -5 50 -9 19 -5 53 -11 75 -15 177 -26
538 -153 740 -261 140 -74 353 -210 431 -275 188 -158 280 -247 342 -331 23
-31 42 -60 42 -64 0 -3 8 -18 18 -32 17 -25 53 -111 80 -187 20 -57 34 -147
36 -241 7 -255 -83 -484 -267 -680 -178 -190 -270 -416 -269 -662 1 -241 93
-461 272 -652 187 -199 273 -405 274 -655 0 -146 -7 -194 -46 -309 -48 -139
-115 -249 -215 -351 -208 -213 -484 -413 -751 -544 -97 -46 -198 -92 -217 -97
-5 -2 -55 -19 -110 -38 -164 -58 -404 -116 -546 -131 -30 -3 -88 -9 -129 -14
-100 -11 -466 -6 -560 8 -41 6 -91 13 -110 16 -76 11 -182 33 -267 56 -40 11
-80 22 -90 23 -53 11 -295 106 -411 161 -200 97 -406 224 -538 334 -114 95
-149 126 -234 211 -257 256 -460 557 -600 890 -42 100 -105 275 -115 320 -2 8
-12 51 -23 95 -58 226 -77 395 -77 675 0 172 10 363 19 379 2 3 7 28 10 54 33
248 161 636 280 852 18 33 46 83 61 110 62 111 200 306 305 430 62 73 254 259
340 329 125 102 111 91 228 169 388 258 842 416 1322 460 97 9 418 3 520 -9z"/>
<path d="M4177 5854 c-1 -1 -33 -5 -72 -8 -338 -29 -676 -159 -955 -370 -349
-263 -607 -672 -695 -1101 -21 -105 -24 -123 -32 -215 -52 -628 206 -1228 697
-1620 61 -49 223 -160 234 -160 2 0 30 -15 63 -33 133 -75 404 -166 548 -184
21 -2 42 -6 45 -8 10 -6 202 -19 280 -18 77 0 209 10 246 17 12 2 39 7 60 10
142 23 347 89 489 159 252 124 510 328 569 449 60 125 22 289 -86 377 -64 51
-176 76 -268 58 -38 -7 -110 -52 -165 -102 -125 -116 -233 -187 -377 -249
-455 -194 -987 -96 -1339 246 -213 206 -332 443 -373 738 -12 82 -13 258 -3
310 3 14 10 54 17 89 82 450 447 837 901 955 371 96 758 19 1064 -213 33 -25
62 -48 65 -52 3 -3 32 -29 64 -58 167 -145 404 -98 494 98 36 78 36 174 0 251
-32 69 -116 156 -240 250 -11 8 -32 24 -46 36 -41 32 -219 137 -287 168 -194
90 -368 140 -610 172 -46 6 -283 13 -288 8z"/>
</g>
</svg>
